<?xml version="1.0" standalone="no"?>
<!DOCTYPE svg PUBLIC "-//W3C//DTD SVG 20010904//EN"
 "http://www.w3.org/TR/2001/REC-SVG-20010904/DTD/svg10.dtd">
<svg version="1.0" xmlns="http://www.w3.org/2000/svg"
 width="522.000000pt" height="522.000000pt" viewBox="0 0 522.000000 522.000000"
 preserveAspectRatio="xMidYMid meet">
<metadata>
Created by potrace 1.14, written by Peter Selinger 2001-2017
</metadata>
<g transform="translate(0.000000,522.000000) scale(0.100000,-0.100000)"
fill="#000000" stroke="none">
<path d="M2640 5212 c-49 -3 -260 -29 -300 -37 -14 -3 -41 -8 -60 -11 -83 -15
-275 -69 -390 -111 -702 -254 -1275 -796 -1567 -1483 -36 -86 -98 -256 -108
-298 -3 -9 -16 -62 -30 -117 -14 -55 -28 -113 -31 -130 -24 -148 -28 -177 -39
-285 -8 -77 -9 -383 -1 -455 20 -184 22 -197 51 -340 13 -66 41 -172 61 -235
21 -63 38 -119 40 -125 6 -29 84 -205 137 -310 57 -114 213 -361 274 -434 292
-354 571 -580 940 -763 142 -70 165 -79 179 -67 35 29 307 378 460 591 100
140 414 619 414 633 0 3 12 24 27 46 l26 40 -2 522 c-8 1405 -7 1481 12 1510
44 67 140 68 184 1 20 -31 18 36 23 -1152 2 -398 5 -470 16 -454 7 11 42 77
78 148 l64 129 -3 951 c-4 919 -3 952 15 982 27 44 88 62 135 39 70 -33 66 10
69 -762 2 -382 5 -698 8 -700 3 -3 24 43 48 103 23 59 55 133 71 164 28 55 29
65 32 203 l2 145 30 29 c39 39 81 46 130 21 l39 -20 25 33 c50 62 197 210 272
272 161 136 385 266 582 339 97 36 287 89 362 100 22 4 56 9 75 13 19 3 48 7
65 8 16 2 36 3 43 4 15 1 -75 136 -175 261 -63 79 -261 285 -343 355 -177 154
-447 323 -678 424 -189 83 -453 161 -642 191 -41 6 -85 13 -98 15 -91 15 -401
25 -522 17z m-128 -849 c11 -10 25 -27 31 -38 7 -14 11 -217 13 -655 1 -349 3
-840 5 -1090 1 -328 -1 -462 -9 -477 -43 -80 -156 -82 -196 -4 -22 42 -29
2194 -7 2234 29 55 118 71 163 30z m-383 -565 c12 -7 27 -26 35 -43 14 -31 14
3 20 -1563 1 -337 -2 -534 -9 -554 -27 -83 -143 -96 -192 -22 -16 26 -18 60
-20 428 -3 710 -5 1650 -4 1680 1 19 13 40 37 63 31 29 41 33 74 29 21 -3 48
-11 59 -18z m-747 -545 c11 -10 25 -27 30 -37 7 -13 11 -185 12 -495 2 -529 3
-520 -65 -554 -31 -15 -41 -16 -74 -5 -21 7 -47 26 -59 41 -20 27 -21 39 -22
505 -2 520 -2 526 55 558 33 18 96 12 123 -13z m353 -137 c64 -27 68 -46 68
-357 0 -301 -3 -323 -52 -352 -36 -21 -73 -22 -112 -1 -52 26 -56 52 -58 357
-1 308 1 321 61 350 41 20 50 21 93 3z"/>
</g>
</svg>
